<svg xmlns="http://www.w3.org/2000/svg" width="16.33" height="18.022" viewBox="0 0 16.33 18.022">
  <g id="Group_12232" data-name="Group 12232" transform="translate(-153.312 -149.551)">
    <path id="Path_22463" data-name="Path 22463" d="M169.431,167s-.367.574-.845.175c-.4-.335-3.4-3.428-5.548-5.468-1.371,1.307-2.662,2.583-4,3.826a7.24,7.24,0,0,1-1.642,1.228,2.483,2.483,0,0,1-3.731-2.041,67.644,67.644,0,0,1,0-7.413c.128-2.168,1.945-3.061,3.715-1.786a49.281,49.281,0,0,1,4.1,3.651c.51.462.988.925,1.594,1.483,1.578-1.531,3.141-2.933,4.544-4.48a3.331,3.331,0,0,0,.415-3.858,3.051,3.051,0,0,0-3.125-1.77c-3.2.032-6.409.016-9.63.016h-1.291c-.064,0-.08-.112-.08-.207v-.175c0-.223.016-.271.048-.3a.2.2,0,0,1,.143-.048c3.571-.016,7.78-.064,11.351,0a3.448,3.448,0,0,1,3.332,2.439,4.251,4.251,0,0,1-1.02,4.687c-1.339,1.371-2.758,2.647-4.209,4.034m5.9,6.01-6.951-5.771c-1.833-1.738-3.444-3.444-5.245-4.91-1.467-1.212-2.806-.542-2.87,1.355-.08,2.232-.1,4.48.032,6.728a2.278,2.278,0,0,0,1,1.754,2.506,2.506,0,0,0,2.12-.319C159.212,164.434,160.742,162.871,162.5,161.229Z" transform="translate(0 0)" fill="#fff" stroke="#fff" stroke-width="0.5"/>
  </g>
</svg>
