<svg xmlns="http://www.w3.org/2000/svg" width="17.5" height="15.5" viewBox="0 0 17.5 15.5">
  <g id="filter_1_" data-name="filter (1)" transform="translate(-3.25 -4.25)">
    <path id="Path_22646" data-name="Path 22646" d="M6,4.25A2.75,2.75,0,1,0,8.75,7,2.75,2.75,0,0,0,6,4.25ZM4.75,7A1.25,1.25,0,1,1,6,8.25,1.25,1.25,0,0,1,4.75,7Z" fill="#131313" fill-rule="evenodd"/>
    <path id="Path_22647" data-name="Path 22647" d="M12,6.25a.75.75,0,0,0,0,1.5h8a.75.75,0,0,0,0-1.5Z" fill="#131313"/>
    <path id="Path_22648" data-name="Path 22648" d="M18,14.25A2.75,2.75,0,1,0,20.75,17,2.75,2.75,0,0,0,18,14.25ZM16.75,17A1.25,1.25,0,1,1,18,18.25,1.25,1.25,0,0,1,16.75,17Z" fill="#131313" fill-rule="evenodd"/>
    <path id="Path_22649" data-name="Path 22649" d="M4,16.25a.75.75,0,0,0,0,1.5h8a.75.75,0,0,0,0-1.5Z" fill="#131313"/>
  </g>
</svg>
