<svg xmlns="http://www.w3.org/2000/svg" width="30.418" height="30.418" viewBox="0 0 30.418 30.418">
  <g id="Group_1778" data-name="Group 1778" transform="translate(-3.5 -3.171)">
    <g id="Group_38657" data-name="Group 38657">
      <path id="Ellipse_4" data-name="Ellipse 4" d="M15.209,0A15.209,15.209,0,1,1,0,15.209,15.209,15.209,0,0,1,15.209,0Z" transform="translate(3.5 3.171)" fill="#f9f9f9"/>
    </g>
    <g id="search" transform="translate(11.872 10.943)">
      <g id="Group_10031" data-name="Group 10031" transform="translate(0 0.616)">
        <g id="Group_10030" data-name="Group 10030">
          <path id="Path_22453" data-name="Path 22453" d="M6.03.616A6.014,6.014,0,1,0,12.06,6.63,6.029,6.029,0,0,0,6.03.616Zm0,11.039A5.025,5.025,0,1,1,11.072,6.63,5.039,5.039,0,0,1,6.03,11.655Z" transform="translate(0 -0.616)" fill="#131313" stroke="#131313" stroke-width="0.3"/>
        </g>
      </g>
      <g id="Group_10033" data-name="Group 10033" transform="translate(9.44 10.04)">
        <g id="Group_10032" data-name="Group 10032">
          <path id="Path_22454" data-name="Path 22454" d="M357.555,356.839l-3.246-3.229a.494.494,0,0,0-.7.7l3.246,3.229a.494.494,0,0,0,.7-.7Z" transform="translate(-353.466 -353.466)" fill="#131313" stroke="#131313" stroke-width="0.3"/>
        </g>
      </g>
    </g>
  </g>
</svg>
